<svg width="398" height="134" viewBox="0 0 398 134" fill="none" xmlns="http://www.w3.org/2000/svg">
<path d="M396.434 80.7443V94.3505H362.01V80.7443H396.434ZM368.532 80.7443L387.454 68.2266V116.188C387.454 116.914 387.579 117.526 387.828 118.025C388.078 118.502 388.463 118.864 388.985 119.114C389.506 119.341 390.175 119.454 390.992 119.454C391.559 119.454 392.216 119.386 392.965 119.25C393.736 119.114 394.303 119 394.665 118.91L397.387 132.108C396.548 132.357 395.346 132.663 393.781 133.026C392.239 133.389 390.402 133.627 388.27 133.741C383.962 133.967 380.345 133.525 377.42 132.414C374.494 131.28 372.295 129.5 370.821 127.073C369.346 124.647 368.632 121.608 368.678 117.957L368.532 80.7443Z" fill="black"/>
<path d="M322.127 103.603V132.992H303.351V80.7443H321.175V90.6768H321.719C322.853 87.366 324.848 84.7695 327.706 82.8873C330.586 81.0051 333.942 80.064 337.774 80.064C341.471 80.064 344.68 80.9144 347.401 82.6152C350.145 84.2933 352.265 86.6063 353.762 89.5543C355.281 92.5023 356.029 95.8699 356.007 99.6569V132.992H337.23V103.603C337.253 101.018 336.595 98.988 335.257 97.514C333.942 96.04 332.105 95.303 329.747 95.303C328.205 95.303 326.855 95.6431 325.699 96.3234C324.565 96.9811 323.692 97.9335 323.08 99.1807C322.467 100.405 322.15 101.879 322.127 103.603Z" fill="black"/>
<path d="M275.007 132.992V80.7443C282.264 84.1602 286.378 84.0544 293.784 80.7443V132.992H275.007ZM284.259 77.0866C281.72 77.0866 279.543 76.2476 277.728 74.5695C275.914 72.8914 275.007 70.8731 275.007 68.5147C275.007 66.1563 275.914 64.138 277.728 62.4599C279.543 60.7818 281.72 59.9428 284.259 59.9428C286.822 59.9428 288.999 60.7818 290.79 62.4599C292.605 64.138 293.512 66.1563 293.512 68.5147C293.512 70.8731 292.605 72.8914 290.79 74.5695C288.999 76.2476 286.822 77.0866 284.259 77.0866Z" fill="black"/>
<path d="M240.311 133.945C234.642 133.945 229.789 132.822 225.753 130.577C221.716 128.309 218.621 125.157 216.466 121.121C214.312 117.062 213.235 112.356 213.235 107.004C213.235 101.653 214.312 96.9584 216.466 92.9219C218.621 88.8627 221.716 85.7106 225.753 83.4655C229.789 81.1978 234.642 80.064 240.311 80.064C245.981 80.064 250.834 81.1978 254.87 83.4655C258.907 85.7106 262.002 88.8627 264.156 92.9219C266.311 96.9584 267.388 101.653 267.388 107.004C267.388 112.356 266.311 117.062 264.156 121.121C262.002 125.157 258.907 128.309 254.87 130.577C250.834 132.822 245.981 133.945 240.311 133.945ZM240.447 120.066C242.035 120.066 243.407 119.533 244.563 118.468C245.72 117.402 246.616 115.882 247.251 113.909C247.885 111.937 248.203 109.589 248.203 106.868C248.203 104.124 247.885 101.777 247.251 99.827C246.616 97.8541 245.72 96.3348 244.563 95.2689C243.407 94.2031 242.035 93.6702 240.447 93.6702C238.769 93.6702 237.329 94.2031 236.127 95.2689C234.926 96.3348 234.007 97.8541 233.372 99.827C232.737 101.777 232.42 104.124 232.42 106.868C232.42 109.589 232.737 111.937 233.372 113.909C234.007 115.882 234.926 117.402 236.127 118.468C237.329 119.533 238.769 120.066 240.447 120.066Z" fill="black"/>
<path d="M153.13 132.992V63.3283H183.199C188.37 63.3283 192.894 64.3488 196.771 66.3897C200.649 68.4307 203.665 71.2993 205.82 74.9957C207.974 78.692 209.051 83.012 209.051 87.9556C209.051 92.9445 207.94 97.2645 205.718 100.916C203.518 104.567 200.422 107.378 196.431 109.351C192.463 111.324 187.825 112.311 182.519 112.311H164.559V97.616H178.709C180.932 97.616 182.825 97.2305 184.39 96.4595C185.977 95.6658 187.19 94.5433 188.029 93.0919C188.891 91.6406 189.322 89.9285 189.322 87.9556C189.322 85.96 188.891 84.2592 188.029 82.8533C187.19 81.4246 185.977 80.3361 184.39 79.5878C182.825 78.8167 180.932 78.4312 178.709 78.4312H172.042V132.992H153.13Z" fill="black"/>
<path d="M110.253 103.603V132.992H91.4763V80.7443H109.3V90.6768H109.845C110.979 87.366 112.974 84.7695 115.831 82.8873C118.711 81.0051 122.068 80.064 125.9 80.064C129.596 80.064 132.805 80.9144 135.526 82.6152C138.27 84.2933 140.391 86.6063 141.887 89.5543C143.407 92.5023 144.155 95.8699 144.132 99.6569V132.992H125.356V103.603C125.378 101.018 124.721 98.988 123.383 97.514C122.068 96.04 120.231 95.303 117.872 95.303C116.33 95.303 114.981 95.6431 113.825 96.3234C112.691 96.9811 111.818 97.9335 111.205 99.1807C110.593 100.405 110.276 101.879 110.253 103.603Z" fill="black"/>
<path d="M63.1329 132.992V80.7443H81.9094V132.992H63.1329Z" fill="black"/>
<path d="M0 132.992V63.3283H30.0697C35.2401 63.3283 39.7642 64.3488 43.642 66.3897C47.5197 68.4307 50.5358 71.2993 52.6901 74.9957C54.8444 78.692 55.9216 83.012 55.9216 87.9556C55.9216 92.9445 54.8104 97.2645 52.588 100.916C50.3884 104.567 47.293 107.378 43.3018 109.351C39.3333 111.324 34.6959 112.311 29.3894 112.311H11.4292V97.616H25.5797C27.802 97.616 29.6956 97.2305 31.2603 96.4595C32.8477 95.6658 34.0609 94.5433 34.9 93.0919C35.7617 91.6406 36.1925 89.9285 36.1925 87.9556C36.1925 85.96 35.7617 84.2592 34.9 82.8533C34.0609 81.4246 32.8477 80.3361 31.2603 79.5878C29.6956 78.8167 27.802 78.4312 25.5797 78.4312H18.9126V132.992H0Z" fill="black"/>
<path d="M88.9312 56.8589L74.2853 71.5047" stroke="#FF6262" stroke-width="5" stroke-linecap="round" stroke-linejoin="round"/>
<path d="M101.672 33.0431C100.581 34.1327 99.3212 35.0088 98.033 35.5731C96.7447 36.1374 95.4794 36.3675 94.3794 36.2374L88.4574 35.588C87.3573 35.4579 86.092 35.6879 84.8038 36.2522C83.5156 36.8165 82.2555 37.6927 81.1652 38.7822L78.9391 41.0084C78.1622 41.7853 77.6116 42.7248 77.4085 43.6203C77.2053 44.5158 77.3662 45.2939 77.8558 45.7835L100.007 67.9343C100.496 68.4238 101.274 68.5847 102.17 68.3816C103.065 68.1784 104.005 67.6279 104.782 66.851L107.008 64.6248C108.097 63.5346 108.974 62.2745 109.538 60.9862C110.102 59.698 110.332 58.4327 110.202 57.3326L109.553 51.4107C109.423 50.3106 109.653 49.0453 110.217 47.7571C110.781 46.4689 111.657 45.2088 112.747 44.1185L123.761 33.1049C124.537 32.328 125.477 31.7774 126.372 31.5743C127.268 31.3711 128.046 31.532 128.536 32.0216C129.515 33.0007 131.071 33.3225 132.862 32.9162C134.653 32.5099 136.532 31.4088 138.086 29.855C139.64 28.3013 140.741 26.4223 141.147 24.6313C141.553 22.8403 141.231 21.284 140.252 20.3049L125.485 5.5377C124.506 4.55857 122.95 4.23677 121.159 4.64307C119.368 5.04938 117.489 6.15051 115.935 7.70424C114.381 9.25797 113.28 11.137 112.874 12.928C112.468 14.719 112.789 16.2753 113.768 17.2544C114.258 17.7439 114.419 18.5221 114.216 19.4176C114.013 20.3131 113.462 21.2526 112.685 22.0295L101.672 33.0431Z" stroke="#FF6262" stroke-width="5" stroke-linecap="round" stroke-linejoin="round"/>
</svg>
