<svg width="67" height="23" viewBox="0 0 67 23" fill="none" xmlns="http://www.w3.org/2000/svg">
<path d="M66.2188 13.4872V15.7599H60.4688V13.4872H66.2188ZM61.558 13.4872L64.7188 11.3963V19.4076C64.7188 19.5289 64.7396 19.6311 64.7812 19.7145C64.8229 19.794 64.8873 19.8546 64.9744 19.8963C65.0616 19.9342 65.1733 19.9531 65.3097 19.9531C65.4044 19.9531 65.5142 19.9417 65.6392 19.919C65.768 19.8963 65.8627 19.8773 65.9233 19.8622L66.3778 22.0667C66.2377 22.1084 66.0369 22.1595 65.7756 22.2201C65.518 22.2808 65.2112 22.3205 64.8551 22.3395C64.1354 22.3773 63.5313 22.3035 63.0426 22.1179C62.554 21.9285 62.1866 21.6311 61.9403 21.2258C61.6941 20.8205 61.5748 20.313 61.5824 19.7031L61.558 13.4872Z" fill="black"/>
<path d="M53.8068 17.3054V22.2145H50.6705V13.4872H53.6477V15.1463H53.7386C53.928 14.5933 54.2614 14.1595 54.7386 13.8452C55.2197 13.5308 55.7803 13.3736 56.4205 13.3736C57.0379 13.3736 57.5739 13.5156 58.0284 13.7997C58.4867 14.08 58.8409 14.4664 59.0909 14.9588C59.3447 15.4512 59.4697 16.0137 59.4659 16.6463V22.2145H56.3295V17.3054C56.3333 16.8736 56.2235 16.5345 56 16.2883C55.7803 16.0421 55.4735 15.919 55.0795 15.919C54.822 15.919 54.5966 15.9758 54.4034 16.0895C54.214 16.1993 54.0682 16.3584 53.9659 16.5667C53.8636 16.7713 53.8106 17.0175 53.8068 17.3054Z" fill="black"/>
<path d="M45.9361 22.2145V13.4872C47.1482 14.0578 47.8353 14.0401 49.0724 13.4872V22.2145H45.9361ZM47.4815 12.8762C47.0573 12.8762 46.6937 12.7361 46.3906 12.4558C46.0876 12.1755 45.9361 11.8384 45.9361 11.4444C45.9361 11.0505 46.0876 10.7134 46.3906 10.4331C46.6937 10.1528 47.0573 10.0126 47.4815 10.0126C47.9096 10.0126 48.2732 10.1528 48.5724 10.4331C48.8755 10.7134 49.027 11.0505 49.027 11.4444C49.027 11.8384 48.8755 12.1755 48.5724 12.4558C48.2732 12.7361 47.9096 12.8762 47.4815 12.8762Z" fill="black"/>
<path d="M40.1406 22.3736C39.1937 22.3736 38.3831 22.1861 37.7088 21.8111C37.0346 21.4323 36.5175 20.9058 36.1577 20.2315C35.7978 19.5535 35.6179 18.7675 35.6179 17.8736C35.6179 16.9796 35.7978 16.1955 36.1577 15.5213C36.5175 14.8433 37.0346 14.3167 37.7088 13.9417C38.3831 13.563 39.1937 13.3736 40.1406 13.3736C41.0876 13.3736 41.8982 13.563 42.5724 13.9417C43.2467 14.3167 43.7637 14.8433 44.1236 15.5213C44.4834 16.1955 44.6634 16.9796 44.6634 17.8736C44.6634 18.7675 44.4834 19.5535 44.1236 20.2315C43.7637 20.9058 43.2467 21.4323 42.5724 21.8111C41.8982 22.1861 41.0876 22.3736 40.1406 22.3736ZM40.1634 20.0554C40.4285 20.0554 40.6577 19.9664 40.8509 19.7883C41.044 19.6103 41.1937 19.3565 41.2997 19.027C41.4058 18.6974 41.4588 18.3054 41.4588 17.8508C41.4588 17.3925 41.4058 17.0005 41.2997 16.6747C41.1937 16.3452 41.044 16.0914 40.8509 15.9133C40.6577 15.7353 40.4285 15.6463 40.1634 15.6463C39.883 15.6463 39.6425 15.7353 39.4418 15.9133C39.241 16.0914 39.0876 16.3452 38.9815 16.6747C38.8755 17.0005 38.8224 17.3925 38.8224 17.8508C38.8224 18.3054 38.8755 18.6974 38.9815 19.027C39.0876 19.3565 39.241 19.6103 39.4418 19.7883C39.6425 19.9664 39.883 20.0554 40.1634 20.0554Z" fill="black"/>
<path d="M25.5781 22.2145V10.5781H30.6009C31.4645 10.5781 32.2202 10.7486 32.8679 11.0895C33.5156 11.4304 34.0194 11.9095 34.3793 12.527C34.7391 13.1444 34.919 13.866 34.919 14.6917C34.919 15.5251 34.7334 16.2467 34.3622 16.8565C33.9948 17.4664 33.4777 17.9361 32.8111 18.2656C32.1482 18.5952 31.3736 18.7599 30.4872 18.7599H27.4872V16.3054H29.8509C30.2221 16.3054 30.5384 16.241 30.7997 16.1122C31.0649 15.9796 31.2675 15.7921 31.4077 15.5497C31.5516 15.3073 31.6236 15.0213 31.6236 14.6917C31.6236 14.3584 31.5516 14.0743 31.4077 13.8395C31.2675 13.6008 31.0649 13.419 30.7997 13.294C30.5384 13.1652 30.2221 13.1008 29.8509 13.1008H28.7372V22.2145H25.5781Z" fill="black"/>
<path d="M18.4162 17.3054V22.2145H15.2798V13.4872H18.2571V15.1463H18.348C18.5374 14.5933 18.8707 14.1595 19.348 13.8452C19.8291 13.5308 20.3897 13.3736 21.0298 13.3736C21.6473 13.3736 22.1832 13.5156 22.6378 13.7997C23.0961 14.08 23.4503 14.4664 23.7003 14.9588C23.9541 15.4512 24.0791 16.0137 24.0753 16.6463V22.2145H20.9389V17.3054C20.9427 16.8736 20.8329 16.5345 20.6094 16.2883C20.3897 16.0421 20.0829 15.919 19.6889 15.919C19.4313 15.919 19.206 15.9758 19.0128 16.0895C18.8234 16.1993 18.6776 16.3584 18.5753 16.5667C18.473 16.7713 18.42 17.0175 18.4162 17.3054Z" fill="black"/>
<path d="M10.5455 22.2145V13.4872H13.6818V22.2145H10.5455Z" fill="black"/>
<path d="M0 22.2145V10.5781H5.02273C5.88636 10.5781 6.64205 10.7486 7.28977 11.0895C7.9375 11.4304 8.44129 11.9095 8.80114 12.527C9.16098 13.1444 9.34091 13.866 9.34091 14.6917C9.34091 15.5251 9.1553 16.2467 8.78409 16.8565C8.41667 17.4664 7.89962 17.9361 7.23295 18.2656C6.57008 18.5952 5.79545 18.7599 4.90909 18.7599H1.90909V16.3054H4.27273C4.64394 16.3054 4.96023 16.241 5.22159 16.1122C5.48674 15.9796 5.68939 15.7921 5.82955 15.5497C5.97349 15.3073 6.04545 15.0213 6.04545 14.6917C6.04545 14.3584 5.97349 14.0743 5.82955 13.8395C5.68939 13.6008 5.48674 13.419 5.22159 13.294C4.96023 13.1652 4.64394 13.1008 4.27273 13.1008H3.15909V22.2145H0Z" fill="black"/>
<path d="M14.8547 9.49747L12.4083 11.9439" stroke="#FF6262" stroke-linecap="round" stroke-linejoin="round"/>
<path d="M16.9828 5.51939C16.8007 5.70138 16.5902 5.84773 16.375 5.94199C16.1598 6.03625 15.9485 6.07467 15.7647 6.05295L14.7756 5.94447C14.5918 5.92274 14.3805 5.96116 14.1653 6.05542C13.9501 6.14968 13.7396 6.29603 13.5575 6.47802L13.1857 6.84987C13.0559 6.97964 12.9639 7.13657 12.93 7.28615C12.8961 7.43573 12.9229 7.56571 13.0047 7.64748L16.7047 11.3475C16.7865 11.4292 16.9164 11.4561 17.066 11.4222C17.2156 11.3882 17.3725 11.2963 17.5023 11.1665L17.8742 10.7947C18.0561 10.6126 18.2025 10.4021 18.2968 10.1869C18.391 9.97171 18.4294 9.76036 18.4077 9.57661L18.2992 8.58743C18.2775 8.40368 18.3159 8.19233 18.4102 7.97715C18.5044 7.76197 18.6508 7.55149 18.8328 7.36938L20.6725 5.5297C20.8022 5.39993 20.9592 5.30797 21.1087 5.27404C21.2583 5.2401 21.3883 5.26698 21.4701 5.34875C21.6336 5.5123 21.8936 5.56606 22.1927 5.49819C22.4919 5.43032 22.8058 5.24639 23.0653 4.98686C23.3248 4.72734 23.5087 4.41347 23.5766 4.11431C23.6445 3.81514 23.5907 3.5552 23.4272 3.39165L20.9605 0.924995C20.797 0.761445 20.537 0.707692 20.2379 0.77556C19.9387 0.843427 19.6248 1.02736 19.3653 1.28688C19.1058 1.54641 18.9219 1.86028 18.854 2.15944C18.7861 2.4586 18.8399 2.71855 19.0034 2.8821C19.0852 2.96388 19.1121 3.09385 19.0781 3.24343C19.0442 3.39301 18.9522 3.54995 18.8225 3.67971L16.9828 5.51939Z" stroke="#FF6262" stroke-linecap="round" stroke-linejoin="round"/>
</svg>
